<?xml version="1.0" encoding="utf-8"?>
<!-- Generator: Adobe Illustrator 16.0.0, SVG Export Plug-In . SVG Version: 6.00 Build 0)  -->
<!DOCTYPE svg PUBLIC "-//W3C//DTD SVG 1.1 Tiny//EN" "http://www.w3.org/Graphics/SVG/1.1/DTD/svg11-tiny.dtd">
<svg version="1.1" baseProfile="tiny" id="Layer_1" xmlns="http://www.w3.org/2000/svg" xmlns:xlink="http://www.w3.org/1999/xlink"
	 x="0px" y="0px" width="128px" height="128px" viewBox="0 0 128 128" xml:space="preserve">
<path fill="#FFFFFF" d="M95.473,17.893H34.36c-8.743,0-15.831,7.087-15.831,15.83v60.552c0,8.742,7.088,15.832,15.831,15.832h61.112
	c8.743,0,15.83-7.09,15.83-15.832V33.723C111.303,24.98,104.216,17.893,95.473,17.893z M28.655,52.654
	c-2.187,0-3.958-1.771-3.958-3.958v-0.857c0-2.186,1.771-3.958,3.958-3.958h11.741c2.186,0,3.958,1.771,3.958,3.958v0.857
	c0,2.186-1.772,3.958-3.958,3.958H28.655z M64.916,87.432c-12.92,0-23.432-10.512-23.432-23.432
	c0-12.921,10.512-23.433,23.432-23.433C77.837,40.566,88.35,51.079,88.35,64C88.35,76.92,77.837,87.432,64.916,87.432z
	 M103.784,38.011c0,2.185-1.772,3.957-3.958,3.957h-9.894c-2.186,0-3.958-1.772-3.958-3.957v-9.895c0-2.186,1.772-3.958,3.958-3.958
	h9.894c2.186,0,3.958,1.772,3.958,3.958V38.011z"/>
</svg>
