<?xml version="1.0" encoding="utf-8"?>
<!-- Generator: Adobe Illustrator 16.0.0, SVG Export Plug-In . SVG Version: 6.00 Build 0)  -->
<!DOCTYPE svg PUBLIC "-//W3C//DTD SVG 1.1//EN" "http://www.w3.org/Graphics/SVG/1.1/DTD/svg11.dtd">
<svg version="1.1" id="Layer_1" xmlns="http://www.w3.org/2000/svg" xmlns:xlink="http://www.w3.org/1999/xlink" x="0px" y="0px"
	 width="128px" height="128px" viewBox="0 0 128 128" enable-background="new 0 0 128 128" xml:space="preserve">
<g>
	<path fill="#333333" d="M35.315,75.51h22.43v-6.254h12.511v6.254h22.429l21.357-21.356v-9.919c0-3.44-2.815-6.255-6.256-6.255
		H89.021L76.51,25.469H51.489l-12.51,12.51H20.213c-3.44,0-6.255,2.815-6.255,6.255v9.919L35.315,75.51z M54.081,31.724h19.838
		l6.256,6.255H47.826L54.081,31.724z"/>
	<path fill="#333333" d="M95.275,81.766h-25.02v6.255H57.745v-6.255H32.724L13.958,63v31.275c0,3.44,2.815,6.256,6.255,6.256h87.573
		c3.44,0,6.256-2.815,6.256-6.256V63L95.275,81.766z"/>
</g>
</svg>
