<?xml version="1.0" encoding="utf-8"?>
<!-- Generator: Adobe Illustrator 16.0.0, SVG Export Plug-In . SVG Version: 6.00 Build 0)  -->
<!DOCTYPE svg PUBLIC "-//W3C//DTD SVG 1.1 Tiny//EN" "http://www.w3.org/Graphics/SVG/1.1/DTD/svg11-tiny.dtd">
<svg version="1.1" baseProfile="tiny" id="Layer_1" xmlns="http://www.w3.org/2000/svg" xmlns:xlink="http://www.w3.org/1999/xlink"
	 x="0px" y="0px" width="128px" height="128px" viewBox="0 0 128 128" xml:space="preserve">
<path fill="#333333" d="M94.633,18.05H33.368c-8.424,0-15.318,6.894-15.318,15.319v61.264c0,8.429,6.894,15.318,15.318,15.318
	h61.265c8.423,0,15.317-6.89,15.317-15.318V33.37C109.949,24.944,103.056,18.05,94.633,18.05z M46.301,94.987H32.404V53.172h13.897
	V94.987z M39.352,47.465h-0.09c-4.664,0-7.68-3.212-7.68-7.228c0-4.1,3.107-7.224,7.862-7.224c4.754,0,7.681,3.122,7.771,7.224
	C47.215,44.251,44.198,47.465,39.352,47.465z M96.419,94.987H82.52V72.615c0-5.619-2.01-9.454-7.038-9.454
	c-3.84,0-6.129,2.584-7.131,5.083c-0.366,0.893-0.457,2.142-0.457,3.39v23.353H53.993c0,0,0.183-37.892,0-41.815h13.901v5.924
	c1.845-2.849,5.146-6.907,12.523-6.907c9.146,0,16.002,5.979,16.002,18.82V94.987L96.419,94.987z"/>
<g>
</g>
<g>
</g>
<g>
</g>
<g>
</g>
<g>
</g>
<g>
</g>
</svg>
