<?xml version="1.0" encoding="utf-8"?>
<!-- Generator: Adobe Illustrator 16.0.0, SVG Export Plug-In . SVG Version: 6.00 Build 0)  -->
<!DOCTYPE svg PUBLIC "-//W3C//DTD SVG 1.1 Tiny//EN" "http://www.w3.org/Graphics/SVG/1.1/DTD/svg11-tiny.dtd">
<svg version="1.1" baseProfile="tiny" id="Layer_1" xmlns="http://www.w3.org/2000/svg" xmlns:xlink="http://www.w3.org/1999/xlink"
	 x="0px" y="0px" width="128px" height="128px" viewBox="0 0 128 128" xml:space="preserve">
<g>
	<path fill="#FFFFFF" d="M31.147,85.555c-6.761,0-12.254,5.515-12.254,12.235c0,6.758,5.494,12.211,12.254,12.211
		c6.785,0,12.272-5.453,12.272-12.211C43.42,91.069,37.933,85.555,31.147,85.555z"/>
	<path fill="#FFFFFF" d="M18.907,49.319v17.646c11.489,0,22.294,4.493,30.432,12.634c8.126,8.121,12.613,18.975,12.613,30.508
		h17.723C79.676,76.586,52.407,49.319,18.907,49.319z"/>
	<path fill="#FFFFFF" d="M18.928,18.036V35.69c40.981,0,74.337,33.39,74.337,74.417h17.699
		C110.964,59.354,69.672,18.036,18.928,18.036z"/>
</g>
</svg>
