<?xml version="1.0" encoding="utf-8"?>
<!-- Generator: Adobe Illustrator 16.0.0, SVG Export Plug-In . SVG Version: 6.00 Build 0)  -->
<!DOCTYPE svg PUBLIC "-//W3C//DTD SVG 1.1 Tiny//EN" "http://www.w3.org/Graphics/SVG/1.1/DTD/svg11-tiny.dtd">
<svg version="1.1" baseProfile="tiny" id="Layer_1" xmlns="http://www.w3.org/2000/svg" xmlns:xlink="http://www.w3.org/1999/xlink"
	 x="0px" y="0px" width="128px" height="128px" viewBox="0 0 128 128" xml:space="preserve">
<g>
	<g>
		<path fill="#333333" d="M98.871,28.174c0.817-2.635,1.908-8.486-1.088-15.977c0,0-5.284-1.678-17.237,6.322
			c-4.685-1.17-9.666-1.748-14.656-1.748c-5.491,0-11.038,0.699-16.215,2.118c-12.333-8.415-17.779-6.69-17.779-6.69
			c-3.554,8.889-1.356,15.47-0.688,17.104c-4.178,4.508-6.729,10.264-6.729,17.32c0,5.328,0.606,10.106,2.089,14.26l1.557,3.529
			c4.164,7.762,12.375,12.775,26.979,14.35c-2.072,1.392-4.188,3.761-5.044,7.768c-2.825,1.352-11.767,4.65-17.133-4.579
			c0,0-3.004-5.492-8.752-5.922c0,0-5.576-0.085-0.385,3.476c0,0,3.73,1.759,6.306,8.365c0,0,3.358,11.271,19.564,7.655v11.64
			c0,0-0.343,4.118-4.116,5.489c0,0-2.231,1.547,0.172,2.402c0,0,10.463,0.857,10.463-7.72V94.643c0,0-0.414-5.034,2.059-6.784
			v20.851c0,0-0.171,4.975-2.744,6.861c0,0-1.716,3.087,2.059,2.231c0,0,7.204-1.03,7.548-9.436l0.163-21.101h1.731l0.164,21.101
			c0.344,8.405,7.549,9.436,7.549,9.436c3.772,0.855,2.057-2.231,2.057-2.231c-2.572-1.888-2.744-6.861-2.744-6.861V88.038
			c2.472,1.926,2.058,6.604,2.058,6.604v12.693c0,8.578,10.465,7.719,10.465,7.719c2.4-0.855,0.173-2.4,0.173-2.4
			c-3.775-1.372-4.118-5.49-4.118-5.49V90.526c0-6.488-2.732-9.926-5.404-11.739c15.576-1.545,23.051-6.573,26.494-14.388
			l1.23-3.489c1.154-4.161,1.502-8.95,1.502-14.29C106.42,38.963,103.542,32.836,98.871,28.174z M65.765,75.889
			c-16.979,0-30.741-2.555-30.741-18.963c0-3.928,1.935-7.575,5.247-10.602c5.527-5.045,14.882-2.374,25.493-2.374
			c10.565-0.002,19.887-2.7,25.422,2.31l0.002,0.002c3.354,3.04,5.317,6.71,5.317,10.664C96.505,75.39,82.742,75.889,65.765,75.889z
			"/>
	</g>
</g>
<g>
</g>
<g>
</g>
<g>
</g>
<g>
</g>
<g>
</g>
<g>
</g>
</svg>
