<?xml version="1.0" encoding="utf-8"?>
<!-- Generator: Adobe Illustrator 16.0.0, SVG Export Plug-In . SVG Version: 6.00 Build 0)  -->
<!DOCTYPE svg PUBLIC "-//W3C//DTD SVG 1.1 Tiny//EN" "http://www.w3.org/Graphics/SVG/1.1/DTD/svg11-tiny.dtd">
<svg version="1.1" baseProfile="tiny" id="Layer_1" xmlns="http://www.w3.org/2000/svg" xmlns:xlink="http://www.w3.org/1999/xlink"
	 x="0px" y="0px" width="128px" height="128px" viewBox="0 0 128 128" xml:space="preserve">
<path fill="#333333" d="M125.251,60.327c-4.242,0.724-10.392-0.029-13.649-1.385c6.771-0.561,11.356-3.639,13.123-7.817
	c-2.439,1.503-10.021,3.139-14.201,1.58c-0.211-0.984-0.437-1.919-0.666-2.766c-3.186-11.719-14.104-21.162-25.539-20.021
	c0.922-0.375,1.856-0.721,2.803-1.039c1.252-0.452,8.643-1.657,7.48-4.262c-0.985-2.298-10.014,1.728-11.711,2.257
	c2.242-0.841,5.953-2.291,6.35-4.875c-3.438,0.471-6.811,2.098-9.417,4.464c0.942-1.013,1.655-2.248,1.807-3.579
	c-9.17,5.866-14.526,17.681-18.859,29.151c-3.402-3.305-6.426-5.904-9.128-7.353c-7.59-4.069-16.669-8.321-30.916-13.618
	c-0.438,4.719,2.33,10.998,10.302,15.166c-1.726-0.233-4.884,0.29-7.406,0.89c1.027,5.411,4.387,9.865,13.492,12.016
	c-4.16,0.273-6.313,1.227-8.259,3.263c1.894,3.761,6.523,8.185,14.833,7.276c-9.249,3.992-3.771,11.384,3.756,10.279
	C36.61,93.23,16.371,92.247,4.749,81.15c30.34,41.387,96.299,24.473,106.124-15.39C118.243,65.82,122.566,63.21,125.251,60.327z"/>
</svg>
