<?xml version="1.0" encoding="utf-8"?>
<!-- Generator: Adobe Illustrator 16.0.0, SVG Export Plug-In . SVG Version: 6.00 Build 0)  -->
<!DOCTYPE svg PUBLIC "-//W3C//DTD SVG 1.1 Tiny//EN" "http://www.w3.org/Graphics/SVG/1.1/DTD/svg11-tiny.dtd">
<svg version="1.1" baseProfile="tiny" id="Layer_1" xmlns="http://www.w3.org/2000/svg" xmlns:xlink="http://www.w3.org/1999/xlink"
	 x="0px" y="0px" width="128px" height="128px" viewBox="0 0 128 128" xml:space="preserve">
<g>
	<path fill="#333333" d="M46.651,85.614c-5.403,2.72-16.421,6.34-33.056,10.86l-2.648-13.139c3.602-0.67,7.522-1.536,11.76-2.596
		V46.573h-9.376V35.501h9.376V13.518h13.985v21.983h7.787v2.332c7.557-7.875,13.173-16.316,16.845-25.322l14.197,2.066
		c-0.882,2.437-1.836,4.715-2.859,6.833h40.735v11.178H65.934c-1.307,1.836-2.914,3.867-4.821,6.092h46.298v25.904H53.59V46.679
		c-0.6,0.53-1.253,1.077-1.959,1.642l-7.151-6.145v4.397h-7.787v30.354c2.967-0.884,6.039-1.854,9.217-2.914L46.651,85.614z
		 M117.053,107.333h-76.6V95.521h8.582V69.935h61.501v25.586h6.517V107.333z M60.742,95.521h6.622V80.212h-6.622V95.521z
		 M93.64,55.578v-7.469H67.363v7.469H93.64z M76.263,95.521h6.939V80.212h-6.939V95.521z M92.208,95.521h6.727V80.212h-6.727V95.521
		z"/>
</g>
<g>
</g>
<g>
</g>
<g>
</g>
<g>
</g>
<g>
</g>
<g>
</g>
</svg>
